<mxfile host="65bd71144e">
    <diagram id="4yNxjWEfjTZH1TNZKQMq" name="Page-1">
        <mxGraphModel dx="1637" dy="692" grid="1" gridSize="10" guides="1" tooltips="1" connect="1" arrows="1" fold="1" page="1" pageScale="1" pageWidth="850" pageHeight="1100" math="0" shadow="0">
            <root>
                <mxCell id="0"/>
                <mxCell id="1" parent="0"/>
                <mxCell id="24" value="Cart" style="swimlane;fontStyle=1;align=center;verticalAlign=top;childLayout=stackLayout;horizontal=1;startSize=26;horizontalStack=0;resizeParent=1;resizeParentMax=0;resizeLast=0;collapsible=1;marginBottom=0;" parent="1" vertex="1">
                    <mxGeometry x="5" y="810" width="250" height="130" as="geometry"/>
                </mxCell>
                <mxCell id="25" value="+ quantity: int&#10;+ book_Id: int" style="text;strokeColor=none;fillColor=none;align=left;verticalAlign=top;spacingLeft=4;spacingRight=4;overflow=hidden;rotatable=0;points=[[0,0.5],[1,0.5]];portConstraint=eastwest;" parent="24" vertex="1">
                    <mxGeometry y="26" width="250" height="44" as="geometry"/>
                </mxCell>
                <mxCell id="26" value="" style="line;strokeWidth=1;fillColor=none;align=left;verticalAlign=middle;spacingTop=-1;spacingLeft=3;spacingRight=3;rotatable=0;labelPosition=right;points=[];portConstraint=eastwest;strokeColor=inherit;" parent="24" vertex="1">
                    <mxGeometry y="70" width="250" height="8" as="geometry"/>
                </mxCell>
                <mxCell id="27" value="+ removeFromCart ( book_Id: int): void&#10;+ addToCart( book_Id: int ,quantity: int): void&#10;" style="text;strokeColor=none;fillColor=none;align=left;verticalAlign=top;spacingLeft=4;spacingRight=4;overflow=hidden;rotatable=0;points=[[0,0.5],[1,0.5]];portConstraint=eastwest;" parent="24" vertex="1">
                    <mxGeometry y="78" width="250" height="52" as="geometry"/>
                </mxCell>
                <mxCell id="28" value="Order" style="swimlane;fontStyle=1;align=center;verticalAlign=top;childLayout=stackLayout;horizontal=1;startSize=26;horizontalStack=0;resizeParent=1;resizeParentMax=0;resizeLast=0;collapsible=1;marginBottom=0;" parent="1" vertex="1">
                    <mxGeometry x="360" y="830" width="140" height="104" as="geometry"/>
                </mxCell>
                <mxCell id="29" value="- order_Id: int&#10;+ totalCost: float" style="text;strokeColor=none;fillColor=none;align=left;verticalAlign=top;spacingLeft=4;spacingRight=4;overflow=hidden;rotatable=0;points=[[0,0.5],[1,0.5]];portConstraint=eastwest;" parent="28" vertex="1">
                    <mxGeometry y="26" width="140" height="44" as="geometry"/>
                </mxCell>
                <mxCell id="30" value="" style="line;strokeWidth=1;fillColor=none;align=left;verticalAlign=middle;spacingTop=-1;spacingLeft=3;spacingRight=3;rotatable=0;labelPosition=right;points=[];portConstraint=eastwest;strokeColor=inherit;" parent="28" vertex="1">
                    <mxGeometry y="70" width="140" height="8" as="geometry"/>
                </mxCell>
                <mxCell id="31" value="+ calcTotalCost ( ): float" style="text;strokeColor=none;fillColor=none;align=left;verticalAlign=top;spacingLeft=4;spacingRight=4;overflow=hidden;rotatable=0;points=[[0,0.5],[1,0.5]];portConstraint=eastwest;" parent="28" vertex="1">
                    <mxGeometry y="78" width="140" height="26" as="geometry"/>
                </mxCell>
                <mxCell id="32" value="OrderDetails" style="swimlane;fontStyle=1;align=center;verticalAlign=top;childLayout=stackLayout;horizontal=1;startSize=26;horizontalStack=0;resizeParent=1;resizeParentMax=0;resizeLast=0;collapsible=1;marginBottom=0;" parent="1" vertex="1">
                    <mxGeometry x="640" y="810" width="165" height="140" as="geometry"/>
                </mxCell>
                <mxCell id="33" value="+ quantity: int&#10;+ book_Id: int&#10;+ deliveryTax: float&#10;+ customerAddress" style="text;strokeColor=none;fillColor=none;align=left;verticalAlign=top;spacingLeft=4;spacingRight=4;overflow=hidden;rotatable=0;points=[[0,0.5],[1,0.5]];portConstraint=eastwest;" parent="32" vertex="1">
                    <mxGeometry y="26" width="165" height="74" as="geometry"/>
                </mxCell>
                <mxCell id="34" value="" style="line;strokeWidth=1;fillColor=none;align=left;verticalAlign=middle;spacingTop=-1;spacingLeft=3;spacingRight=3;rotatable=0;labelPosition=right;points=[];portConstraint=eastwest;strokeColor=inherit;" parent="32" vertex="1">
                    <mxGeometry y="100" width="165" height="8" as="geometry"/>
                </mxCell>
                <mxCell id="35" value="+ calcTax ( ): float&#10;" style="text;strokeColor=none;fillColor=none;align=left;verticalAlign=top;spacingLeft=4;spacingRight=4;overflow=hidden;rotatable=0;points=[[0,0.5],[1,0.5]];portConstraint=eastwest;" parent="32" vertex="1">
                    <mxGeometry y="108" width="165" height="32" as="geometry"/>
                </mxCell>
                <mxCell id="43" value="" style="rhombus;whiteSpace=wrap;html=1;fillColor=#f5f5f5;gradientColor=#b3b3b3;strokeColor=#666666;direction=south;" parent="1" vertex="1">
                    <mxGeometry x="500" y="865" width="36" height="20" as="geometry"/>
                </mxCell>
                <mxCell id="50" value="Book" style="swimlane;fontStyle=1;align=center;verticalAlign=top;childLayout=stackLayout;horizontal=1;startSize=26;horizontalStack=0;resizeParent=1;resizeParentMax=0;resizeLast=0;collapsible=1;marginBottom=0;fillColor=none;" parent="1" vertex="1">
                    <mxGeometry x="5" y="350" width="240" height="170" as="geometry"/>
                </mxCell>
                <mxCell id="51" value="- bookName: String&#10;- book_Id: int&#10;- bookPrice: float&#10;- stock: int" style="text;strokeColor=none;fillColor=none;align=left;verticalAlign=top;spacingLeft=4;spacingRight=4;overflow=hidden;rotatable=0;points=[[0,0.5],[1,0.5]];portConstraint=eastwest;" parent="50" vertex="1">
                    <mxGeometry y="26" width="240" height="64" as="geometry"/>
                </mxCell>
                <mxCell id="52" value="" style="line;strokeWidth=1;fillColor=none;align=left;verticalAlign=middle;spacingTop=-1;spacingLeft=3;spacingRight=3;rotatable=0;labelPosition=right;points=[];portConstraint=eastwest;strokeColor=inherit;" parent="50" vertex="1">
                    <mxGeometry y="90" width="240" height="8" as="geometry"/>
                </mxCell>
                <mxCell id="53" value="+ getBookName ( book_Id: int): String&#10;+ getBookPrice ( book_Id: int): float&#10;+ getStock ( book_Id:int):int&#10;+ setStock ( book_Id:int, newStock:int):int" style="text;strokeColor=none;fillColor=none;align=left;verticalAlign=top;spacingLeft=4;spacingRight=4;overflow=hidden;rotatable=0;points=[[0,0.5],[1,0.5]];portConstraint=eastwest;" parent="50" vertex="1">
                    <mxGeometry y="98" width="240" height="72" as="geometry"/>
                </mxCell>
                <mxCell id="54" value="Inventory" style="swimlane;fontStyle=1;align=center;verticalAlign=top;childLayout=stackLayout;horizontal=1;startSize=26;horizontalStack=0;resizeParent=1;resizeParentMax=0;resizeLast=0;collapsible=1;marginBottom=0;fillColor=none;" parent="1" vertex="1">
                    <mxGeometry x="15" y="90" width="220" height="150" as="geometry"/>
                </mxCell>
                <mxCell id="55" value="+Â  storeName: String&#10;+ storeAdress: String&#10;+ profits: int" style="text;strokeColor=none;fillColor=none;align=left;verticalAlign=top;spacingLeft=4;spacingRight=4;overflow=hidden;rotatable=0;points=[[0,0.5],[1,0.5]];portConstraint=eastwest;" parent="54" vertex="1">
                    <mxGeometry y="26" width="220" height="54" as="geometry"/>
                </mxCell>
                <mxCell id="56" value="" style="line;strokeWidth=1;fillColor=none;align=left;verticalAlign=middle;spacingTop=-1;spacingLeft=3;spacingRight=3;rotatable=0;labelPosition=right;points=[];portConstraint=eastwest;strokeColor=inherit;" parent="54" vertex="1">
                    <mxGeometry y="80" width="220" height="8" as="geometry"/>
                </mxCell>
                <mxCell id="57" value="+ addBook ( book_Id: int): void&#10;+ removeBook ( book_Id: int): void&#10;+ updateBook ( book_Id: int): void" style="text;strokeColor=none;fillColor=none;align=left;verticalAlign=top;spacingLeft=4;spacingRight=4;overflow=hidden;rotatable=0;points=[[0,0.5],[1,0.5]];portConstraint=eastwest;" parent="54" vertex="1">
                    <mxGeometry y="88" width="220" height="62" as="geometry"/>
                </mxCell>
                <mxCell id="68" value="" style="rhombus;whiteSpace=wrap;html=1;" parent="1" vertex="1">
                    <mxGeometry x="113.75" y="244" width="22.5" height="36" as="geometry"/>
                </mxCell>
                <mxCell id="73" value="NormalCustomer" style="swimlane;fontStyle=1;align=center;verticalAlign=top;childLayout=stackLayout;horizontal=1;startSize=26;horizontalStack=0;resizeParent=1;resizeParentMax=0;resizeLast=0;collapsible=1;marginBottom=0;" parent="1" vertex="1">
                    <mxGeometry x="355" y="630" width="240" height="120" as="geometry"/>
                </mxCell>
                <mxCell id="74" value="- loyaltyPoints: int" style="text;strokeColor=none;fillColor=none;align=left;verticalAlign=top;spacingLeft=4;spacingRight=4;overflow=hidden;rotatable=0;points=[[0,0.5],[1,0.5]];portConstraint=eastwest;" parent="73" vertex="1">
                    <mxGeometry y="26" width="240" height="26" as="geometry"/>
                </mxCell>
                <mxCell id="75" value="" style="line;strokeWidth=1;fillColor=none;align=left;verticalAlign=middle;spacingTop=-1;spacingLeft=3;spacingRight=3;rotatable=0;labelPosition=right;points=[];portConstraint=eastwest;strokeColor=inherit;" parent="73" vertex="1">
                    <mxGeometry y="52" width="240" height="8" as="geometry"/>
                </mxCell>
                <mxCell id="76" value="+ getPoints (customerID:int): int&#10;+ setPoints (customerID:int&#10;,loyaltyPoints: int): int" style="text;strokeColor=none;fillColor=none;align=left;verticalAlign=top;spacingLeft=4;spacingRight=4;overflow=hidden;rotatable=0;points=[[0,0.5],[1,0.5]];portConstraint=eastwest;" parent="73" vertex="1">
                    <mxGeometry y="60" width="240" height="60" as="geometry"/>
                </mxCell>
                <mxCell id="85" value="LoyalCustomer" style="swimlane;fontStyle=1;align=center;verticalAlign=top;childLayout=stackLayout;horizontal=1;startSize=26;horizontalStack=0;resizeParent=1;resizeParentMax=0;resizeLast=0;collapsible=1;marginBottom=0;" parent="1" vertex="1">
                    <mxGeometry x="625" y="630" width="220" height="110" as="geometry"/>
                </mxCell>
                <mxCell id="86" value="- offer: String&#10;- discount: int" style="text;strokeColor=none;fillColor=none;align=left;verticalAlign=top;spacingLeft=4;spacingRight=4;overflow=hidden;rotatable=0;points=[[0,0.5],[1,0.5]];portConstraint=eastwest;" parent="85" vertex="1">
                    <mxGeometry y="26" width="220" height="44" as="geometry"/>
                </mxCell>
                <mxCell id="87" value="" style="line;strokeWidth=1;fillColor=none;align=left;verticalAlign=middle;spacingTop=-1;spacingLeft=3;spacingRight=3;rotatable=0;labelPosition=right;points=[];portConstraint=eastwest;strokeColor=inherit;" parent="85" vertex="1">
                    <mxGeometry y="70" width="220" height="8" as="geometry"/>
                </mxCell>
                <mxCell id="88" value="+ getOffers (customerID:int): String" style="text;strokeColor=none;fillColor=none;align=left;verticalAlign=top;spacingLeft=4;spacingRight=4;overflow=hidden;rotatable=0;points=[[0,0.5],[1,0.5]];portConstraint=eastwest;" parent="85" vertex="1">
                    <mxGeometry y="78" width="220" height="32" as="geometry"/>
                </mxCell>
                <mxCell id="144" style="edgeStyle=none;html=1;entryX=0.587;entryY=0.975;entryDx=0;entryDy=0;entryPerimeter=0;endArrow=none;endFill=0;" parent="1" source="89" target="143" edge="1">
                    <mxGeometry relative="1" as="geometry"/>
                </mxCell>
                <mxCell id="89" value="Customer" style="swimlane;fontStyle=1;align=center;verticalAlign=top;childLayout=stackLayout;horizontal=1;startSize=26;horizontalStack=0;resizeParent=1;resizeParentMax=0;resizeLast=0;collapsible=1;marginBottom=0;" parent="1" vertex="1">
                    <mxGeometry x="430" y="350" width="390" height="170" as="geometry"/>
                </mxCell>
                <mxCell id="90" value="- userName: String&#10;- password: String&#10;- email: String&#10;- customerID: int&#10;&#10;" style="text;strokeColor=none;fillColor=none;align=left;verticalAlign=top;spacingLeft=4;spacingRight=4;overflow=hidden;rotatable=0;points=[[0,0.5],[1,0.5]];portConstraint=eastwest;" parent="89" vertex="1">
                    <mxGeometry y="26" width="390" height="64" as="geometry"/>
                </mxCell>
                <mxCell id="91" value="" style="line;strokeWidth=1;fillColor=none;align=left;verticalAlign=middle;spacingTop=-1;spacingLeft=3;spacingRight=3;rotatable=0;labelPosition=right;points=[];portConstraint=eastwest;strokeColor=inherit;" parent="89" vertex="1">
                    <mxGeometry y="90" width="390" height="8" as="geometry"/>
                </mxCell>
                <mxCell id="92" value="+ login ( userName: String ,password: String): boolean&#10;+ register (email: String, password: String, userName: String): boolean&#10;+ updateCustomer(customerID:int, newEmail: String,&#10;Â  newPassword: String, newUserName: String):boolean&#10;" style="text;strokeColor=none;fillColor=none;align=left;verticalAlign=top;spacingLeft=4;spacingRight=4;overflow=hidden;rotatable=0;points=[[0,0.5],[1,0.5]];portConstraint=eastwest;" parent="89" vertex="1">
                    <mxGeometry y="98" width="390" height="72" as="geometry"/>
                </mxCell>
                <mxCell id="108" value="" style="endArrow=none;html=1;exitX=0.627;exitY=-0.001;exitDx=0;exitDy=0;exitPerimeter=0;" parent="1" source="73" edge="1">
                    <mxGeometry width="50" height="50" relative="1" as="geometry">
                        <mxPoint x="505" y="650" as="sourcePoint"/>
                        <mxPoint x="505" y="540" as="targetPoint"/>
                    </mxGeometry>
                </mxCell>
                <mxCell id="109" value="" style="endArrow=classic;html=1;" parent="1" edge="1">
                    <mxGeometry width="50" height="50" relative="1" as="geometry">
                        <mxPoint x="594" y="540" as="sourcePoint"/>
                        <mxPoint x="594" y="520" as="targetPoint"/>
                    </mxGeometry>
                </mxCell>
                <mxCell id="110" value="" style="endArrow=none;html=1;exitX=0.367;exitY=0.006;exitDx=0;exitDy=0;exitPerimeter=0;" parent="1" source="85" edge="1">
                    <mxGeometry width="50" height="50" relative="1" as="geometry">
                        <mxPoint x="710" y="533" as="sourcePoint"/>
                        <mxPoint x="705" y="540" as="targetPoint"/>
                    </mxGeometry>
                </mxCell>
                <mxCell id="111" value="" style="endArrow=none;html=1;" parent="1" edge="1">
                    <mxGeometry width="50" height="50" relative="1" as="geometry">
                        <mxPoint x="505" y="540" as="sourcePoint"/>
                        <mxPoint x="705" y="540" as="targetPoint"/>
                    </mxGeometry>
                </mxCell>
                <mxCell id="113" value="" style="endArrow=none;html=1;exitX=1.004;exitY=0.398;exitDx=0;exitDy=0;exitPerimeter=0;" parent="1" source="51" edge="1">
                    <mxGeometry width="50" height="50" relative="1" as="geometry">
                        <mxPoint x="355" y="450" as="sourcePoint"/>
                        <mxPoint x="430" y="401" as="targetPoint"/>
                    </mxGeometry>
                </mxCell>
                <mxCell id="115" value="1" style="text;html=1;align=center;verticalAlign=middle;resizable=0;points=[];autosize=1;strokeColor=none;fillColor=none;" parent="1" vertex="1">
                    <mxGeometry x="125" y="270" width="30" height="30" as="geometry"/>
                </mxCell>
                <mxCell id="116" value="0...*" style="text;html=1;align=center;verticalAlign=middle;resizable=0;points=[];autosize=1;strokeColor=none;fillColor=none;" parent="1" vertex="1">
                    <mxGeometry x="125" y="330" width="40" height="30" as="geometry"/>
                </mxCell>
                <mxCell id="117" value="1...*" style="text;html=1;align=center;verticalAlign=middle;resizable=0;points=[];autosize=1;strokeColor=none;fillColor=none;" parent="1" vertex="1">
                    <mxGeometry x="390" y="380" width="40" height="30" as="geometry"/>
                </mxCell>
                <mxCell id="118" value="0..*" style="text;html=1;align=center;verticalAlign=middle;resizable=0;points=[];autosize=1;strokeColor=none;fillColor=none;" parent="1" vertex="1">
                    <mxGeometry x="240" y="380" width="40" height="30" as="geometry"/>
                </mxCell>
                <mxCell id="120" value="1" style="text;html=1;align=center;verticalAlign=middle;resizable=0;points=[];autosize=1;strokeColor=none;fillColor=none;" parent="1" vertex="1">
                    <mxGeometry x="520" y="850" width="30" height="30" as="geometry"/>
                </mxCell>
                <mxCell id="121" value="1" style="text;html=1;align=center;verticalAlign=middle;resizable=0;points=[];autosize=1;strokeColor=none;fillColor=none;" parent="1" vertex="1">
                    <mxGeometry x="615" y="850" width="30" height="30" as="geometry"/>
                </mxCell>
                <mxCell id="132" value="1" style="text;html=1;align=center;verticalAlign=middle;resizable=0;points=[];autosize=1;strokeColor=none;fillColor=none;" parent="1" vertex="1">
                    <mxGeometry x="255" y="850" width="30" height="30" as="geometry"/>
                </mxCell>
                <mxCell id="133" value="0...*" style="text;html=1;align=center;verticalAlign=middle;resizable=0;points=[];autosize=1;strokeColor=none;fillColor=none;" parent="1" vertex="1">
                    <mxGeometry x="320" y="850" width="40" height="30" as="geometry"/>
                </mxCell>
                <mxCell id="134" value="" style="endArrow=classic;html=1;exitX=0.33;exitY=0;exitDx=0;exitDy=0;exitPerimeter=0;entryX=0.333;entryY=0.993;entryDx=0;entryDy=0;entryPerimeter=0;" parent="1" source="24" target="53" edge="1">
                    <mxGeometry relative="1" as="geometry">
                        <mxPoint x="325" y="610" as="sourcePoint"/>
                        <mxPoint x="425" y="610" as="targetPoint"/>
                    </mxGeometry>
                </mxCell>
                <mxCell id="135" value="Contain" style="edgeLabel;resizable=0;html=1;align=center;verticalAlign=middle;" parent="134" connectable="0" vertex="1">
                    <mxGeometry relative="1" as="geometry">
                        <mxPoint x="30" y="15" as="offset"/>
                    </mxGeometry>
                </mxCell>
                <mxCell id="136" value="0...*" style="text;html=1;align=center;verticalAlign=middle;resizable=0;points=[];autosize=1;strokeColor=none;fillColor=none;" parent="1" vertex="1">
                    <mxGeometry x="85" y="520" width="40" height="30" as="geometry"/>
                </mxCell>
                <mxCell id="139" value="1...*" style="text;html=1;align=center;verticalAlign=middle;resizable=0;points=[];autosize=1;strokeColor=none;fillColor=none;" parent="1" vertex="1">
                    <mxGeometry x="85" y="780" width="40" height="30" as="geometry"/>
                </mxCell>
                <mxCell id="140" value="Credit" style="swimlane;fontStyle=1;align=center;verticalAlign=top;childLayout=stackLayout;horizontal=1;startSize=26;horizontalStack=0;resizeParent=1;resizeParentMax=0;resizeLast=0;collapsible=1;marginBottom=0;" parent="1" vertex="1">
                    <mxGeometry x="455" y="100" width="290" height="140" as="geometry"/>
                </mxCell>
                <mxCell id="141" value="+ totalCredit: float&#10;- credit_Id: int&#10;- credit_pass: String" style="text;strokeColor=none;fillColor=none;align=left;verticalAlign=top;spacingLeft=4;spacingRight=4;overflow=hidden;rotatable=0;points=[[0,0.5],[1,0.5]];portConstraint=eastwest;" parent="140" vertex="1">
                    <mxGeometry y="26" width="290" height="54" as="geometry"/>
                </mxCell>
                <mxCell id="142" value="" style="line;strokeWidth=1;fillColor=none;align=left;verticalAlign=middle;spacingTop=-1;spacingLeft=3;spacingRight=3;rotatable=0;labelPosition=right;points=[];portConstraint=eastwest;strokeColor=inherit;" parent="140" vertex="1">
                    <mxGeometry y="80" width="290" height="8" as="geometry"/>
                </mxCell>
                <mxCell id="143" value="+ set_Credit ( credit_Id:int ,credit_pass: String): void&#10;+ pay ( ): void" style="text;strokeColor=none;fillColor=none;align=left;verticalAlign=top;spacingLeft=4;spacingRight=4;overflow=hidden;rotatable=0;points=[[0,0.5],[1,0.5]];portConstraint=eastwest;" parent="140" vertex="1">
                    <mxGeometry y="88" width="290" height="52" as="geometry"/>
                </mxCell>
                <mxCell id="145" value="1" style="text;html=1;align=center;verticalAlign=middle;resizable=0;points=[];autosize=1;strokeColor=none;fillColor=none;" parent="1" vertex="1">
                    <mxGeometry x="595" y="320" width="30" height="30" as="geometry"/>
                </mxCell>
                <mxCell id="146" value="1...*" style="text;html=1;align=center;verticalAlign=middle;resizable=0;points=[];autosize=1;strokeColor=none;fillColor=none;" parent="1" vertex="1">
                    <mxGeometry x="590" y="240" width="40" height="30" as="geometry"/>
                </mxCell>
                <mxCell id="147" style="edgeStyle=none;html=1;exitX=0;exitY=0.5;exitDx=0;exitDy=0;entryX=1;entryY=0.951;entryDx=0;entryDy=0;entryPerimeter=0;endArrow=none;endFill=0;" parent="1" source="29" target="25" edge="1">
                    <mxGeometry relative="1" as="geometry"/>
                </mxCell>
                <mxCell id="148" value="" style="endArrow=classic;html=1;exitX=0.5;exitY=0;exitDx=0;exitDy=0;" parent="1" source="43" edge="1">
                    <mxGeometry width="50" height="50" relative="1" as="geometry">
                        <mxPoint x="440" y="970" as="sourcePoint"/>
                        <mxPoint x="640" y="875" as="targetPoint"/>
                    </mxGeometry>
                </mxCell>
                <mxCell id="149" value="" style="endArrow=classic;html=1;exitX=0.5;exitY=1;exitDx=0;exitDy=0;entryX=0.008;entryY=0.644;entryDx=0;entryDy=0;entryPerimeter=0;" parent="1" source="68" target="116" edge="1">
                    <mxGeometry width="50" height="50" relative="1" as="geometry">
                        <mxPoint x="250" y="420" as="sourcePoint"/>
                        <mxPoint x="125" y="345" as="targetPoint"/>
                    </mxGeometry>
                </mxCell>
            </root>
        </mxGraphModel>
    </diagram>
</mxfile>